<svg id="Layer_1" data-name="Layer 1" xmlns="http://www.w3.org/2000/svg" viewBox="0 0 500 500"><defs><style>.cls-1{fill:#fff;}</style></defs><title>Lich</title><path id="_Compound_Path_" data-name="&lt;Compound Path&gt;" class="cls-1" d="M436.8,106.14a2.27,2.27,0,0,0,.3-1.79c-3.51-14-12.17-40.37-33.72-62.75-24-24.89-50.24-30.66-64.83-33.63-30.24-6.17-54,.41-64.83,3.54C257.4,16.23,243.36,20.29,230.19,33c-25.27,24.33-28.46,62.15-29,75.25a2.23,2.23,0,0,0,.28,1.19l34.8,62.47a2.31,2.31,0,0,1,.24,1.53l-4.07,21.8a2,2,0,0,0,1.51,2.46l41.31,6.53a2,2,0,0,1,1.54,2v27.18a2.14,2.14,0,0,0,.83,1.73l32.28,23.55a1.59,1.59,0,0,0,1.76.1l38.24-21.93a2.1,2.1,0,0,0,1-1.84V204.67a2,2,0,0,1,1.73-2.05L395.26,201A2,2,0,0,0,397,198.7l-2.78-27.06a2.28,2.28,0,0,1,.35-1.48ZM290.69,142.91l3.14,9.29-33.59-.33-19.86-17.27-11-19.63-1.71-17.3-9.15-1.5,13.59-2.7,10.27,3.44L289,140.09,305.32,139Zm25.08,66.82-13.33-13.48,14.63-35.66,15.42,34.16Zm58.8-57.86L341,151.08l-2.78-8.17-8.36-2.1,18.67-.72L362.25,126l26-29.05L402.78,95l11.5-.9-10.45,4.2-10.09,32.4Z"/><path id="_Path_" data-name="&lt;Path&gt;" class="cls-1" d="M197.47,120.22l28,51.69-8.05,32,50.42,10L266,239.45l44.86,30.21L362,236.94l-0.6-28.4,35.66,0,0.68,53C337.52,385.24,315,405.45,305.3,402.29c-14.16-4.63-3.15-60.34-18.17-64.9-24.28-7.36-83.3,128.89-97.35,123.31-9-3.58,12.71-60.62-1.3-68.79-22-12.85-111.8,107.23-118.12,102.54-8.13-6,137.1-207.65,120.17-221.75-9.57-8-62.76,50.88-76,41.33C100.65,304.07,138.23,225.47,197.47,120.22Z"/></svg>