<svg id="Layer_1" data-name="Layer 1" xmlns="http://www.w3.org/2000/svg" viewBox="0 0 500 500"><defs><style>.cls-1{fill:#fff;}</style></defs><title>Lich</title><path id="_Path_" data-name="&lt;Path&gt;" class="cls-1" d="M212.1,431.31L46.43,489.9,0,500l469.73-5.05L500,468.68V412.11l-11.11-23.23L379.79,399l-24.24-3-35.36,12.12L299,380.8l-18.18-36.37-18.18-16.16-4-50.51L271,266.86l0.69-17.68,8-2.43-1-7.28,1.73-5.89c7.89-2.65,12.93-6.13,12.48-8.32-0.41-2-5.52-3.13-11.79-3.12l-0.35-9-11.1-4.51L270,182.26l10.8-5.51,2-9.09-7.09-29.21-7.69-10a1.93,1.93,0,0,0-2.26-.4,1.9,1.9,0,0,0-1,1.69,29.7,29.7,0,0,1-.71,20.4l-15.7-3.45a88,88,0,0,0-3.27-46.17c-8.22-2.62-15.24-4.62-20.66-6.09a122.64,122.64,0,0,0-13.7-2.61c-8.66-1.2-10.9-.68-11.74.65-1,1.64.93,9,1.52,10.87,2.17,6.84,10.11,8.95,10.92,9.15l8.75,0.46,2.76,17.5-1.61,21.87-12.2,2.53a20.53,20.53,0,0,1-12.2-20.95l-9.67-10.82-9-12.89-7.37-22.79-18.88.69-13.7.75L123.2,97.95,112.09,105v9.09l24.24,5.05,12.12,5.05,6.06,13.13,10.1,15.15,12.12,12.12,3,20.2L162.6,195.94,152.5,207l-9.09,13.13H129.26L122.19,203l-1-15.15L95.93,160.58l-12.12-9.09-10.1,2-6.06,7.07,12.12,11.11V206l35.36,37.38-1,28.28,27.27,10.1,22.22,12.12,23.23,14.14,4,41.42L198,368.68l3,37.38,10.1,5.05Z"/></svg>