<svg id="Layer_1" data-name="Layer 1" xmlns="http://www.w3.org/2000/svg" viewBox="0 0 500 500"><defs><style>.cls-1{fill:#fff;}.cls-2{fill:#222;}</style></defs><title>Lich</title><path id="path2386" class="cls-1" d="M251.92,467.71c-3.65-1.08-36.41-16.41-41.57-19.44a50.61,50.61,0,0,1-16.22-16c-3.48-5.38-3.88-6.36-3.88-9.5a24,24,0,0,1,2.07-8.65l2.07-5.15-1-10.56c-0.58-5.81-1-12.46-1-14.79,0-5.23,1.6-10.45,3.48-11.38,3-1.5,6.75,3.13,6.75,8.44,0,13.82,6.5,39.23,9,35.15,0.42-.69.26-2.61-0.47-5.62a30,30,0,0,1-.89-7.34c0.21-2.71.26-2.76,2.86-3a6,6,0,0,1,3.41.5c0.48,0.44.76,3.54,0.76,8.32,0,8.33.15,8.61,4.24,7.66,1.72-.4,1.74-0.48,1.35-4.78-0.35-3.8-.22-4.54.93-5.6,1.54-1.41,4.22-1.6,5.33-.37a20,20,0,0,1,2.05,4.28c2.43,6.48,4,7.61,5.43,3.95,0.92-2.32,2.55-3.07,5.9-2.71,2.17,0.24,2.54.75,4.13,5.71,1.25,3.89,2.59,5,5.59,4.7,1.49-.16,1.87-0.55,2-2.07,0.71-7.37,1.19-7.82,5.87-5.36,4.33,2.27,4.49,2.44,5.88,6.29,0.77,2.12,1.41,2.87,2.59,3,2.14,0.28,3.16-.65,4.19-3.79a34.5,34.5,0,0,1,2.17-5c1.18-2.12,1.56-2.35,4-2.35,1.83,0,2.87.32,3.14,1,0.52,1.25,4,2.88,5.18,2.45,0.6-.21.84-1,0.66-2.11-0.23-1.46.16-2.09,2.2-3.51,1.51-1.05,2.73-1.51,3.11-1.16a32,32,0,0,1,2.4,6.18,52.61,52.61,0,0,0,2.08,5.89c0.54,0.49,4.42-3.29,4.79-4.68a12.8,12.8,0,0,0-.77-4.91c-1.2-3.8-.95-6.19.85-8,1.33-1.35,4.69-1.42,6.1-.13a2.25,2.25,0,0,0,1.23.78c0.09-.1,1.63-4.83,3.41-10.51,3.67-11.72,5.87-16.5,8.24-17.92,3.7-2.23,5.13.88,3.46,7.54-1.44,5.72-3.4,30.92-3,38.22,0.47,8-.92,13.46-4.29,16.83-4.06,4-23.15,15.81-35.25,21.72-3.66,1.79-7.68,3.95-8.94,4.8C268.05,468.39,258.63,469.7,251.92,467.71Zm8.86-63.25c-0.37-.13-2-0.53-3.51-0.9-2.7-.64-2.87-0.82-3.64-3.94-1.4-5.71-1.22-5.47-4.2-5.47-2.41,0-2.83.22-3.5,1.86-1,2.33-3.52,2.94-6.88,1.65-2.82-1.08-2.64-.21-2.74-13.83l-0.06-8.76h-1.7c-1.41,0-1.68.27-1.54,1.56,0.56,5.56.33,7.37-1.4,10.79l-1.81,3.6h-3.36c-2.89,0-3.59-.26-5.07-1.87s-2.66-5-3.34-9.65c-0.34-2.33-1.78-1.72-2.36,1-0.66,3.07-2.13,3.74-4.14,1.9-0.93-.85-1.43-2.51-1.76-5.83-0.74-7.42-2.28-13.12-4-14.8-2.24-2.2-6.32-4.21-11.79-5.8l-4.8-1.39-4.94,2c-3.24,1.3-5.44,1.85-6.39,1.57-0.8-.23-3.55-2.33-6.1-4.67-5.32-4.86-5.21-4.4-3.63-15,1.47-9.85,1.28-17.26-.65-25.78a59.28,59.28,0,0,0-2.42-8.63c-0.42-.72-1.83-4-3.15-7.37s-4.5-10.73-7.07-16.43c-4.86-10.74-9.4-25.49-10.85-35.2-0.93-6.25-.94-25.16,0-30.41,1.37-7.76,8.94-30.8,12.34-37.56,3.63-7.22,6.25-10.94,10.73-15.25,3.87-3.71,15.33-12.05,18.89-13.74a13.9,13.9,0,0,0,3.32-2.32c2.36-2.41,6.76-4.86,17.85-10,19.82-9.11,38.75-12.64,60.23-11.26,12.73,0.82,31.14,3.37,38.44,5.31,8.5,2.27,19.3,7.25,25.22,11.62,9.49,7,13.72,11.85,20.22,23.12,3.26,5.65,6.87,12.48,8,15.19s2.55,5.71,3.09,6.67a54.09,54.09,0,0,1,2.64,7l3.41,10.71c4.2,13.2,7.69,39.27,7,52-0.35,6.25-.75,8.24-2.46,12.2-1.12,2.6-5.15,12.47-9,21.94L357,307.51l-0.07,12.82c-0.06,11.05.11,13.33,1.23,16.47s1.21,4.09.46,7.82a36.6,36.6,0,0,1-2.84,8c-1.82,3.5-2.47,4.11-7.11,6.64-5.53,3-4.92,2.91-22.72,4-8.38.49-9,.83-13.23,7.71-2.78,4.49-3.1,4.76-9,7.67-3.35,1.66-6.24,3.16-6.42,3.32a42.4,42.4,0,0,0-.84,6.84c-0.6,7.71-.94,8.91-2.68,9.42-2.71.79-3.84-.48-7.08-8-0.81-1.88-1.37-2.35-2.8-2.35-4.09,0-4.42.63-4.42,8.45,0,6.43-.13,7.22-1.32,7.8-1.73.85-6.65,0.83-7.23,0a17.68,17.68,0,0,1-.82-4.41c-0.37-3.72-.38-3.74-2.4-3.55-1.83.17-2.2,0.6-3.73,4.41-0.93,2.32-1.89,4.2-2.13,4.17A6.92,6.92,0,0,1,260.77,404.46Zm-3.35-61.28c0.43-.57.87-1.19,1.31-1.87s0.79-1.27,1.11-1.87V332c-1.9-3.52-1.09-7.32,1.31-8.94,1.25-.85,3.45-1.45,4.85-0.49,1.6,1.1.83,3.35,1.26,10.07a33.22,33.22,0,0,0,1.06,7.52c0.61,2.15,2.11,7.46,4.64,7.67,0.6,0,1.28-.19,5.65-5.7,4-5.06,4.63-6.36,5-7.57a12.87,12.87,0,0,0,.84-5.94c-0.28-2.32-1-4-4.3-7.9a93.94,93.94,0,0,1-8.29-11.23c-1-1.67-1.63-5.32-3.66-6.83-0.63-.47-1.93-1.44-3.16-1.23a4.14,4.14,0,0,1-1.21.1,4.93,4.93,0,0,1-1.41-.39,6.57,6.57,0,0,0-2.73-.2,6.08,6.08,0,0,0-2.32.43c-1.51.8-.84,3.28-1.68,5.29-1.08,2.58-2.64,5.11-5.63,9.54a28.56,28.56,0,0,0-3.95,7.51,21.15,21.15,0,0,0-.75,11.54c1.36,5.92,5.63,11.46,8.18,11a6,6,0,0,0,2.62-1.47A6.16,6.16,0,0,0,257.42,343.18Zm68.77-33.88c2.17-.14,4-1,7.78-2.84,4.28-2.06,5.34-3.44,6-4.7a6,6,0,0,0,.57-2,19.62,19.62,0,0,0-.08-7.51c-0.76-4.24.29-8.12,1.62-13,1.74-6.42,4-8.58,2.63-10.55-1.54-2.19-6.18-2.12-6.66-2.11-2.6.06-3.47,1-5.26,0.45-2-.62-2.17-2.16-3.71-3.47s-3.23-1.3-12.54-.75c-8.87.52-10.38,0.65-12.82,1.48a14.23,14.23,0,0,0-5.3,2.19c-2.1,1.51-7.07,3.79-8.25,3.79a31.58,31.58,0,0,0-5.84,2.24c-4.27,2-5.09,2.63-6.59,5.33L276.06,281l1.37,5.3a31,31,0,0,0,6.39,7c3.77,3,5.3,2.78,13.85,7.05,7.92,4,8.68,5.22,13.15,6.22,2.33,0.52,3.06.38,7.68,1.36C323.34,309,324.08,309.44,326.19,309.3ZM233,297.74a13.89,13.89,0,0,0,3.78-2.24c0.51-.36,1.29-0.89,2.27-1.53a7.87,7.87,0,0,0,.5-0.61c0.27-.36.34-0.52,0.57-0.8a4.33,4.33,0,0,1,.63-0.61c0.82-.67,1.11-0.5,1.45-0.92s0.06-.41.38-1.66a9.35,9.35,0,0,0,.38-1.47,10.48,10.48,0,0,0,0-1.1,8.13,8.13,0,0,0-.13-1.78c-0.19-.67-0.4-0.61-0.57-1.17-0.31-1,.31-1.53.19-2.33-0.15-1-1.28-1.37-2.21-2.09-1.82-1.42-1.61-3.29-2.58-5.83-1-2.74-2.77-4.41-4.66-6.26a25.05,25.05,0,0,0-9-5.51c-4.7-1.77-8.72-1.81-13.35-2a56.82,56.82,0,0,0-6,.12,51.26,51.26,0,0,0-12.77,2,39.57,39.57,0,0,0-4.17,1.6c-4.43,1.92-6.64,2.88-7.5,4.2-2.16,3.34,2.94,6.33,3.12,14.5,0.11,4.86-1.64,6.27-.86,11.4a22.08,22.08,0,0,0,2.47,7.23l3.16,4.55,2.47,1.2a12,12,0,0,0,1.37.67,13.9,13.9,0,0,0,2,.62c1.73,0.38,2.73,0,4.81.11,2.92,0.12,2.87.9,4.74,0.6,1.32-.21,1.66-0.65,3.51-0.94a15.28,15.28,0,0,1,2.74-.15c2.41,0,3.87-1.17,8-3.33,2.77-1.46,1.77-.76,6.87-3.28a30.68,30.68,0,0,1,7.26-2.89A9.19,9.19,0,0,0,233,297.74Z"/><path id="_Path_" data-name="&lt;Path&gt;" class="cls-2" d="M117.68,155.75c-2.08-3.48,1.72-8.71,6.36-15.1,2.89-4,5-6.76,7.15-6.36,2.4,0.44,3.76,4.45,4,7.15,0.24,3.09-.94,5.32-3.18,9.54s-3.36,6.32-5.56,7.15C123.41,159.26,119.18,158.26,117.68,155.75Z"/><path id="_Compound_Path_" data-name="&lt;Compound Path&gt;" class="cls-1" d="M460.12,341.58c-5.46-14.17-26.57-9.93-30.9-24.39-6-20.16,30.69-42.76,22.77-58.54-2.72-5.41-7.58-3.83-20.33-17.07a68.94,68.94,0,0,1-10.57-13.82,66,66,0,0,1-4.78-10.29c-3.58-10-2.61-16.34-3.44-24.69-1.46-14.63-6.25-14.08-8.16-26.9-3.05-20.5,8.63-25.69,4.3-39.76-4.1-13.31-15.08-10.32-25.79-26.86-12-18.47-4-31-15-39.76-10.52-8.33-27-4.55-37.61-2.15-20,4.54-35.17,16.15-36.29,14.42-0.33-.5.86-1.61,2.42-3.62,5.78-7.49,9.12-17.8,7.25-19.32-3.28-2.67-20.12,23.57-35.16,20.14-11.29-2.58-9.54-19.14-19.87-22.35-18.71-5.83-38.47,44.19-69.51,42.1-12.85-.87-24.07-10.42-24.59-9.53S173.26,91.6,172.51,93c-1,1.79-32.3-16.3-37.74-9.82-4.31,5.13,11.87,20.58,6.71,28.79-5.28,8.4-25.45-2.66-34.48,6.9-7.12,7.54,2.09,18-1.72,45.69-1.14,8.3-2.42,17-7.79,26.78-7.36,13.35-18.63,21.77-18,22.49s12-10.4,15.13-8.18c2.55,1.79-1.81,11.16-4.87,20.11-11,32.23-2,51-9.15,53.36-10,3.37-34.13-22.1-35.22-49-0.75-18.45,9.7-35.51,7.81-36.34-1.3-.57-4.22,8.46-14.1,15.34-8.32,5.79-12.3,3.6-14.87,7.78-6,9.72,12.21,27,6,35.59-2.55,3.54-6.46,1.67-8.31,4.27-8.61,12.07,63.84,69.52,54.88,84.76-1.59,2.7-6.38,5.19-21.59,2.7-5.93,2.86-14.1,5.58-23.39,4.5-12.44-1.44-21-9-21.59-8.1s7.66,10.56,20.69,18c27,15.4,46,5.35,59.38,18,5.81,5.5,11.42,16.1,9,38.69,5.25,3.47,38.24,24.86,53.27,13.52,5.84-4.4,5.62-20.41,5.65-52.24,0.06-57.88-1.16-63.56-2.82-69.18-7.57-25.65-17.07-25.47-22.59-52.24-3.88-18.81-2.41-34.5-1.41-45.18,1.57-16.76,2.82-30.12,11.29-45.18a83.61,83.61,0,0,1,24-26.83c10.64-7.56,20.88-10.32,40.94-15.53,12.58-3.27,27.51-7.07,48-8.47,17.75-1.22,32.28-2.21,50.83,2.82A130.06,130.06,0,0,1,339,130.87c10.52,6.11,17.52,10.18,24,18.35,4.83,6.09,7.52,13.56,12.71,28.24a329.71,329.71,0,0,1,9.88,33.88c5.64,23.08,5.77,31.89,5.65,36.71a78.89,78.89,0,0,1-1.41,14.12c-2.31,11.71-6,15.46-12.71,31.06-5.82,13.5-8.74,20.25-8.47,26.83,0.45,11,6,12.08,7.06,24,0.23,2.49,1.29,16.63-7.06,28.24-8.14,11.31-16.6,8.25-25.41,21.18a49.67,49.67,0,0,0-7.06,16.94c-2.18,8.7-4.41,17.66,0,22.59,4.61,5.15,14.13,3.31,24,1.41a90.35,90.35,0,0,0,29.65-11.29C393.42,420.85,471.41,370.88,460.12,341.58ZM130.33,316.76c5.47,11.58,6.33,12.08,8,17.08,2.12,6.19,3.61,10.76,2,16.08a19.22,19.22,0,0,1-5,8,24.56,24.56,0,0,1-16.08,7c-6.57.22-11.11-2.48-17.08-6-6.91-4.11-11.4-6.78-13.06-12.06-2.85-9.07,5.12-18.09,6-19.09,1.86,0.65,5.56,1.61,9,0,5.62-2.59,8.76-11,6-20.1-4.88-5.62-4.6-12.84-1-16.08a9,9,0,0,1,10-1c3.39,2.07,2.66,5.82,6,15.07C126,307.53,127.43,310.61,130.33,316.76ZM352.07,107.85c-6.62,5.63-14.47,5.44-17.19,5.37-3.72-.09-9.83-0.24-12.89-4.3s-0.46-8.9-3.22-10.74c-3.13-2.08-7.29,3.5-12.89,2.15s-10-8.71-8.6-14c0.73-2.71,2.71-3.7,8.6-7.52,15.69-10.2,17.73-13.73,22.56-12.89,3.64,0.63,3.36,2.77,9.67,7.52,11.5,8.65,18.34,6,21.49,11.82C363.08,91.76,358.6,102.29,352.07,107.85Zm65.78,263.82c-16.31,17.47-17.34,29.47-28.46,30.9-3.39.43-9.62,0.13-11.38-3.25-4.64-8.94,28.07-27.51,23.58-44.72-1.25-4.78-3.87-3.7-8.94-13.82a66,66,0,0,1-6.5-22c-0.7-6.08-1.88-16.42,1.63-17.89,3.81-1.6,11.42,8.05,17.89,16.26,8.86,11.25,7.86,13.41,14.64,20.33,8.73,8.91,13.91,8.91,14.64,13.82C435.8,357.26,428.68,360.06,417.85,371.66Z"/><path id="_Path_2" data-name="&lt;Path&gt;" class="cls-1" d="M95.47,133.6c3.21,0.37,5.77,18,1.9,34.82C92.48,189.74,78,206.87,74.76,205.34c-2.26-1.07,1.32-13.51,8.49-38.4C89.71,144.52,92.94,133.31,95.47,133.6Z"/></svg>