<svg id="Layer_1" data-name="Layer 1" xmlns="http://www.w3.org/2000/svg" viewBox="0 0 500 500"><defs><style>.cls-1{fill:#fffefe;stroke:#fff;stroke-miterlimit:10;stroke-width:0.46px;}</style></defs><title>Lich</title><path id="_Compound_Path_" data-name="&lt;Compound Path&gt;" class="cls-1" d="M207.24,168.4l10.35,10.53-5.83,6.42-55.91-53.65-14.12,13L157,161.05l-10.17,10.17L67.19,93.85,42.34,64.48,32.18,41.9c-8,12.42-25,43.13-20.33,81.32,3.32,27,16.25,47.61,24.28,60.43a189.92,189.92,0,0,0,27.11,33.88L94.86,213l-3.39,30.5L215.15,367.18l62.69-62.69-54.21-54.21,10.73-10.73q64.07,66,131,132.74,53.06,52.89,105.68,104L489,460.76,382.29,355.34l-153-153.63,7-7.27,14,15,34.37-75.19ZM213.33,218l-11,11-37.78-37.15,11.33-11.33Z"/></svg>