<svg id="Layer_1" data-name="Layer 1" xmlns="http://www.w3.org/2000/svg" viewBox="0 0 48.54 48.76"><defs><style>.cls-1{fill:#adab9b;}</style></defs><title>Abilities_Icon_GRIMexe_Overcharge</title><g id="P"><path class="cls-1" d="M456,1305.38a0.84,0.84,0,0,0-.64.21,0.83,0.83,0,0,0-.27.61v8.3a0.83,0.83,0,0,0,.83.83h8.34a0.83,0.83,0,0,0,.83-0.91A10,10,0,0,0,456,1305.38Zm-12.4,10H452a0.83,0.83,0,0,0,.83-0.83v-8.3a0.83,0.83,0,0,0-.27-0.61,0.84,0.84,0,0,0-.64-0.21,10,10,0,0,0-9.1,9.05,0.83,0.83,0,0,0,.22.63A0.84,0.84,0,0,0,443.63,1315.34Zm8.9,11.93a0.83,0.83,0,0,0,.27-0.61v-8.3a0.83,0.83,0,0,0-.83-0.83h-8.34a0.84,0.84,0,0,0-.62.27,0.83,0.83,0,0,0-.22.63,10,10,0,0,0,9.1,9.05A0.84,0.84,0,0,0,452.53,1327.27Zm11.76-9.74H456a0.83,0.83,0,0,0-.83.83v8.3a0.83,0.83,0,0,0,.27.61,0.84,0.84,0,0,0,.64.21,10,10,0,0,0,9.1-9.05A0.83,0.83,0,0,0,464.3,1317.53Zm-17.87-15.94,6.54-4.39a1.42,1.42,0,0,1,2,0l6.54,4.39,0.27-.27a1.42,1.42,0,0,0,0-2l-6.82-6.83a1.42,1.42,0,0,0-2,0l-6.82,6.83a1.42,1.42,0,0,0,0,2Zm31.28,13.84-6.83-6.82a1.42,1.42,0,0,0-2,0l-0.27.27,4.39,6.54a1.41,1.41,0,0,1,0,2l-4.39,6.54,0.27,0.27a1.42,1.42,0,0,0,2,0l6.83-6.82A1.41,1.41,0,0,0,477.71,1315.43Zm-16.19,15.85-6.54,4.39a1.42,1.42,0,0,1-2,0l-6.54-4.39-0.27.27a1.42,1.42,0,0,0,0,2l6.82,6.83a1.42,1.42,0,0,0,2,0l6.82-6.83a1.42,1.42,0,0,0,0-2Zm-22.4-22.39-0.27-.27a1.42,1.42,0,0,0-2,0l-6.83,6.82a1.41,1.41,0,0,0,0,2l6.83,6.82a1.42,1.42,0,0,0,2,0l0.27-.27-4.39-6.54a1.41,1.41,0,0,1,0-2Z" transform="translate(-429.59 -1292.05)"/></g></svg>