<?xml version="1.0" encoding="utf-8"?>
<!-- Generator: Adobe Illustrator 16.0.0, SVG Export Plug-In . SVG Version: 6.00 Build 0)  -->
<!DOCTYPE svg PUBLIC "-//W3C//DTD SVG 1.1//EN" "http://www.w3.org/Graphics/SVG/1.1/DTD/svg11.dtd">
<svg version="1.1" id="Layer_1" xmlns="http://www.w3.org/2000/svg" xmlns:xlink="http://www.w3.org/1999/xlink" x="0px" y="0px"
	 width="500px" height="500px" viewBox="0 0 500 500" enable-background="new 0 0 500 500" xml:space="preserve">
<path fill="#FFFFFF" d="M353.439,158.992c25.596-47.422,7.906-106.615-39.514-132.212c-14.125-7.625-29.913-11.646-45.961-11.709
	c-53.891,0.104-97.489,43.878-97.381,97.767c0.03,16.116,4.056,31.974,11.709,46.154c14.622,22.9,10.489,53.018-9.756,71.135
	l37.272,64.785l-20.882-61.567c31.225-36.104,7.611-78.059,5.271-81.574c-21.878-40.61-6.695-91.266,33.916-113.146
	c12.099-6.518,25.62-9.949,39.364-9.993h0.585c46.128,0.14,83.41,37.647,83.271,83.778c-0.042,13.74-3.474,27.262-9.994,39.36
	c-2.339,3.905-25.854,45.374,5.271,81.574l-20.882,61.567l37.273-64.689C342.881,211.982,338.839,181.893,353.439,158.992"/>
<path fill="#FFFFFF" d="M268.425,144.23c-16.869,0-30.542-13.672-30.542-30.538c0-16.868,13.673-30.541,30.542-30.541
	c16.867,0,30.54,13.673,30.54,30.541C298.964,130.559,285.292,144.23,268.425,144.23"/>
<polygon fill="#FFFFFF" points="276.503,179.94 269.41,484.928 262.318,179.94 "/>
<circle fill="none" stroke="#FFFFFF" stroke-width="5.6769" stroke-miterlimit="10" cx="268.424" cy="113.692" r="53.171"/>
</svg>
