<?xml version="1.0" encoding="utf-8"?>
<!-- Generator: Adobe Illustrator 16.0.0, SVG Export Plug-In . SVG Version: 6.00 Build 0)  -->
<!DOCTYPE svg PUBLIC "-//W3C//DTD SVG 1.1//EN" "http://www.w3.org/Graphics/SVG/1.1/DTD/svg11.dtd">
<svg version="1.1" id="Layer_1" xmlns="http://www.w3.org/2000/svg" xmlns:xlink="http://www.w3.org/1999/xlink" x="0px" y="0px"
	 width="500px" height="500px" viewBox="0 0 500 500" enable-background="new 0 0 500 500" xml:space="preserve">
<path fill="#FFFFFF" d="M475.681,332.52l-105.79-120.919c-0.254-0.291-0.478-0.603-0.673-0.934
	c-4.759-7.264-9.518-14.529-14.281-21.793c-3.471-6.783-6.944-13.566-10.415-20.348c-0.179-0.304-0.327-0.619-0.45-0.947
	l-8.395-22.415l1.679-0.406c0.308-0.075,0.61-0.174,0.902-0.296l2.387-0.993c0.209-0.087,0.41-0.183,0.606-0.293l2.235-1.233
	c0.444-0.247,0.856-0.547,1.229-0.896l2.11-1.985l0.215-0.379l0.107-0.504l-0.254-1.5l-1.008-1.346l-1.133-0.885
	c-0.472-0.392-1.037-0.628-1.649-0.679c-3.549-0.293-15.492-0.996-15.492-0.996l-47.78-1.061c-3.438-0.077-6.169-2.917-6.111-6.356
	c0.139-0.346,0.308-0.928,0.042-1.381c-0.443-0.769-1.858-0.705-2.035-0.705c-4.397,0-163.826-4.692-221.512-6.353
	c-3.077-0.088-5.705,2.171-6.092,5.225c-0.426,3.35-0.849,6.7-1.274,10.049c-0.18,1.402,0.904,2.647,2.316,2.665h4.813
	c0.278,0.034,0.606,0.096,0.97,0.209c0.434,0.135,0.789,0.306,1.063,0.462c0.121,0.111,0.239,0.222,0.357,0.334
	c0.084,0.126,0.171,0.258,0.256,0.396c0.084,0.134,0.163,0.266,0.237,0.394c0.038,0.265,0.078,0.526,0.119,0.79
	c0.012,0.193,0.03,0.395,0.054,0.605c0.021,0.173,0.045,0.34,0.073,0.5c-0.005,0.5-0.007,1.001-0.009,1.501
	c-0.267,0.252-0.762,0.658-1.495,0.919c-0.686,0.245-1.286,0.26-1.645,0.243h-1.935h-1.321c-2.858,0-5.27,2.125-5.63,4.96
	c-1.2,9.459-2.4,18.917-3.6,28.375c-0.417,3.265,1.772,6.434,5.034,6.868c1.413,0.188,3.298,4.92,4.8,9.488
	c-0.002,0.109-0.019,0.213-0.019,0.321c0,2.896,0.902,5.62,2.479,8.015c0.036,0.139,0.056,0.213,0.056,0.213
	c0.047,0.03,0.094,0.06,0.139,0.089c3.678,5.329,10.775,8.942,18.933,8.942c9.29,0,17.188-4.692,20.242-11.261l0.673-0.771
	l118.936,4.546c3.8,0.146,6.571,3.583,5.975,7.337c-0.347,2.18-0.509,4.609-0.327,7.229c1.079,15.777,13.603,25.241,16.313,27.159
	c0.142,0.1,0.272,0.185,0.422,0.271c1.918,1.107,4.641,2.4,8.082,3.222c2.605,0.622,4.934,0.807,6.797,0.819
	c0.215,0.002,0.417-0.012,0.633-0.036c11.556-1.267,25.824-1.853,42.026-0.334c19.6,1.837,36.039,6.193,48.53,10.512
	c0.254,0.086,0.504,0.16,0.77,0.203c0.62,0.1,1.627,0.362,2.645,1.093c0.854,0.612,1.552,1.443,2.014,2.429
	c10.915,16.199,33.347,49.689,33.513,50.29c5.024,17.845,10.045,35.686,15.069,53.531c0.211,0.456,1.066,2.417,0.342,4.803
	c-0.416,1.375-1.275,2.62-2.502,3.503c-0.291,0.209-0.629,0.352-0.974,0.45c-12.774,3.697-25.547,7.395-38.322,11.091
	c-1.202,0.35-2.11,1.339-2.333,2.57c-0.527,2.882-0.85,7.989,2.29,11.899c0.438,0.544,0.989,1.122,1.681,1.682
	c0.442,0.357,0.993,0.562,1.556,0.637l30.96,4.087c1.423,0.188,3.764,0.271,5.197,0.185c28.737-1.75,43.106-2.622,46.394-3.332
	c13.644-2.939,26.918-6.229,36.14-17.955c2.72-3.455,4.409-6.805,5.456-9.291c0.021-0.054,0.044-0.109,0.065-0.164
	c0.166-0.394,2.761-15.886,3.966-23.216C482.271,344.794,480.275,337.766,475.681,332.52 M212.225,137.216
	c0.246-0.265,0.557-0.486,0.887-0.635c6.056-2.704,10.941,4.129,6.425,8.984c-0.246,0.264-0.557,0.488-0.886,0.635
	C212.593,148.905,207.708,142.071,212.225,137.216 M219.172,169.17c0.264,0.244,0.486,0.557,0.634,0.886
	c2.703,6.055-4.129,10.94-8.986,6.426c-0.264-0.247-0.487-0.558-0.635-0.887C207.481,169.538,214.314,164.651,219.172,169.17
	 M156.301,189.112c-0.562,3.383-3.675,5.686-6.953,5.141c-3.28-0.543-5.482-3.729-4.919-7.113c0.562-3.384,3.675-5.687,6.955-5.143
	C154.662,182.542,156.864,185.728,156.301,189.112 M232.247,194.657c-0.488,0.397-0.995,0.604-1.365,0.719
	c0,0-69.625-1.987-69.588-2.656l0.435-7.849c0.036-0.639,59.254-2.943,69.438,0.49c0.147,0.051,0.775,0.271,1.361,0.829
	C234.567,188.143,234.563,192.767,232.247,194.657 M331.323,240.091c-0.363,2.346-1.427,4.276-2.566,5.771
	c-0.631,0.824-1.697,1.152-2.674,0.806c-9.861-3.511-22.902-7.085-38.495-8.653c-14.773-1.485-27.591-0.741-37.532,0.558
	c-0.263,0.034-0.532,0.025-0.792-0.03c-2.25-0.483-3.668-1.379-4.521-2.056c-8.216-6.548-8.845-28.952-9.571-30.477
	c-0.008-0.015-0.062-0.13-0.126-0.288c-0.319-0.786-0.378-1.721-0.378-1.721c-0.041-0.66-0.071-1.117,0.111-1.607
	c0.352-0.957,1.274-1.406,2.176-1.847c0.561-0.274,1.467-0.63,2.673-0.747c14.45-0.116,28.901-0.234,43.351-0.353
	c3.774,0.075,7.463,0.682,11.007,1.698c0.72,0.207,1.362,0.575,1.904,1.057c0.258,0.231,0.435,0.532,0.562,0.855
	c1.05,2.691,3.313,9.812,0.624,17.98c-1.579,4.792-4.255,8.098-6.105,9.997c-0.334,0.341-0.769,0.579-1.237,0.678
	c-3.199,0.669-4.784,1.213-4.75,1.632c0.027,0.367,1.273,0.554,2.189,0.67c2.062,0.26,6.044,0.602,13.154,0.443
	c1.15-0.025,2.125-0.869,2.302-2.004c1.099-7.091,2.195-14.183,3.293-21.274c0.287-1.859,2.502-2.628,3.926-1.398
	c3.048,2.631,5.746,5.714,7.971,9.195C328.139,235.109,331.573,238.505,331.323,240.091 M456.287,364.44
	c-1.45,1.764-3.361,3.13-5.5,3.932c-16.079,6.027-29.271-12.424-18.364-25.689c1.452-1.766,3.362-3.13,5.501-3.932
	C454.002,332.729,467.19,351.177,456.287,364.44"/>
</svg>
