<?xml version="1.0" encoding="utf-8"?>
<!-- Generator: Adobe Illustrator 16.0.0, SVG Export Plug-In . SVG Version: 6.00 Build 0)  -->
<!DOCTYPE svg PUBLIC "-//W3C//DTD SVG 1.1//EN" "http://www.w3.org/Graphics/SVG/1.1/DTD/svg11.dtd">
<svg version="1.1" id="Layer_1" xmlns="http://www.w3.org/2000/svg" xmlns:xlink="http://www.w3.org/1999/xlink" x="0px" y="0px"
	 width="500px" height="500px" viewBox="0 0 500 500" enable-background="new 0 0 500 500" xml:space="preserve">
<path fill="#FFFFFF" d="M474.128,209.439c-9.557-37.799-26.353-63.009-30.65-69.267c-4.58-6.67-16.715-23.488-36.854-40.67
	c-24.068-20.535-46.542-30.479-58.621-35.71c-11.411-4.945-26.499-11.279-47.521-15.035c-22.024-3.934-38.997-2.667-55.726-1.3
	c-27.876,2.275-51.036,8.363-64.721,12.58c-2.249,0.692-6,1.848-10.647,3.483c0,0-31.686,11.151-62.081,32.188
	C84.346,111.6,50.436,143.865,19.488,192.6c-1.302,2.047,1.225,4.37,3.146,2.887c20.41-15.76,27.46-17.515,29.769-15.492
	c4.802,4.208-12.048,23.75-22.423,61.089c-3.605,12.961-8.906,36.984-7.202,66.67c1.26,21.898,5.956,40.38,10.861,54.488
	c0.563,1.614,2.941,1.258,3.022-0.448c0.917-19.13,11.518-95.975,11.103-95.965c-0.334,0.007-0.931,56.873,12.057,62.218
	c0.805,0.331,1.387,0.349,1.556,0.353c9.193,0.138,16.201-31.954,18.864-45.559c0.754,8.92,2.951,22.978,10.416,24.93
	c0.136,0.036,0.863,0.614,1.118,0.189c6.051-10.157,39.147-84.538,47.117-97.67c10.661-17.568,12.462-20.388,13.933-22.66
	c6.061-9.373,9.163-14.141,12.699-18.144c8.17-9.247,16.318-14.595,20.683-17.415c6.891-4.455,12.29-6.848,20.68-10.523
	c11.298-4.945,23.263-9.353,29.992-11.287c18.659-5.364,53.783-7.988,90.278,6.019c8.061,3.093,40.801,16.453,67.385,50.889
	c6.162,7.979,26.859,36.342,32.323,79.089c2.923,22.848,7.364,57.582-14.569,88.784c-3.938,5.602-23.158,31.623-57.512,38.6
	c-20.611,4.184-37.825,0.108-44.817-2.263c-9.968-3.376-23.449-9.113-37.616-19.065c-4.73-3.322-21.082-15.226-36.08-36.077
	c-10.752-14.954-16.465-28.719-20.569-38.523c-2.862-6.838-5.025-12.909-6.621-17.792c-0.457-1.398,0.584-2.828,2.053-2.834
	c12.207-0.052,24.412-0.103,36.618-0.155c1.949-0.008,2.896-2.39,1.483-3.735c-22.936-21.883-45.872-43.769-68.808-65.654
	c-1.255-1.196-3.336-0.509-3.631,1.198c-4.94,28.544-9.88,57.086-14.821,85.632c-0.307,1.768,1.549,3.12,3.141,2.287l27.523-14.397
	c1.332-0.698,2.96,0.143,3.151,1.637c0.503,3.941,1.284,8.792,2.531,14.263c2.812,12.329,6.464,21.068,10.607,30.859
	c2.852,6.733,7.48,17.556,15.43,30.859c3.622,6.062,9.017,15.01,17.358,25.072c7.405,8.936,17.408,21.003,33.752,30.86
	c19.863,11.981,38.517,14.316,48.218,15.431c25.892,2.97,45.775-2.568,56.898-5.787c12.76-3.69,30.943-8.951,49.183-24.109
	c18.188-15.114,26.706-31.991,32.787-44.362c13.386-27.217,15.727-51.05,17.36-69.432
	C483.387,248.459,476.432,218.553,474.128,209.439"/>
</svg>
