<?xml version="1.0" encoding="utf-8"?>
<!-- Generator: Adobe Illustrator 16.0.0, SVG Export Plug-In . SVG Version: 6.00 Build 0)  -->
<!DOCTYPE svg PUBLIC "-//W3C//DTD SVG 1.1//EN" "http://www.w3.org/Graphics/SVG/1.1/DTD/svg11.dtd">
<svg version="1.1" id="Layer_1" xmlns="http://www.w3.org/2000/svg" xmlns:xlink="http://www.w3.org/1999/xlink" x="0px" y="0px"
	 width="500px" height="500px" viewBox="0 0 500 500" enable-background="new 0 0 500 500" xml:space="preserve">
<rect x="436.15" y="229.924" fill="#FFFFFF" width="25.169" height="242.523"/>
<rect x="266.117" y="150.901" fill="#FFFFFF" width="25.168" height="204.797"/>
<rect x="114.109" y="166.729" fill="#FFFFFF" width="25.168" height="251.907"/>
<rect x="353.481" y="166.729" fill="#FFFFFF" width="25.168" height="250.734"/>
<rect x="38.681" y="229.924" fill="#FFFFFF" width="25.168" height="242.523"/>
<polygon fill="#FFFFFF" points="467.561,207.355 467.561,122.963 448.733,91.748 429.909,122.963 429.909,207.355 "/>
<polygon fill="#FFFFFF" points="347.241,144.044 384.895,144.044 384.895,59.649 366.067,28.436 347.241,59.649 "/>
<polygon fill="#FFFFFF" points="297.528,127.971 297.528,43.576 278.701,12.362 259.875,43.576 259.875,127.971 "/>
<polygon fill="#FFFFFF" points="145.521,144.044 145.521,59.649 126.693,28.438 107.867,59.649 107.867,144.044 "/>
<polygon fill="#FFFFFF" points="32.438,207.355 70.092,207.355 70.092,122.963 51.265,91.748 32.438,122.963 "/>
<rect x="184.259" y="150.901" fill="#FFFFFF" width="25.17" height="204.797"/>
<polygon fill="#FFFFFF" points="178.019,127.971 215.672,127.971 215.672,43.576 196.845,12.362 178.019,43.576 "/>
</svg>
