<?xml version="1.0" encoding="utf-8"?>
<!-- Generator: Adobe Illustrator 19.0.0, SVG Export Plug-In . SVG Version: 6.00 Build 0)  -->
<svg version="1.1" xmlns="http://www.w3.org/2000/svg" xmlns:xlink="http://www.w3.org/1999/xlink" x="0px" y="0px"
	 viewBox="0 0 841.9 554.8" style="enable-background:new 0 0 841.9 554.8;" xml:space="preserve">
<style type="text/css">
	.st0{fill:#FFFFFF;}
	.st1{fill:#FFFFFF;stroke:#FFFFFF;stroke-width:6.9443;stroke-miterlimit:10;}
</style>
<g id="Layer_2">
	<g>
		<g>
			<g>
				<path class="st0" d="M104.6,489.5c-28.7,0-47.9-22.1-54.3-44L52,445c6.2,21.3,24.8,42.8,52.6,42.8c17,0,33.8-7.6,45.1-20.3
					v-35.1h-30.3v-1.7h32V488h-1.7V470C138.1,482.3,121.4,489.5,104.6,489.5z M51.1,415.2l-1.7-0.4c6-27.7,27.8-47,53.2-47
					c22.1,0,37.1,8.6,45.9,26.3l-1.6,0.8c-8.5-17.1-23.1-25.4-44.4-25.4C78,369.5,56.9,388.3,51.1,415.2z"/>
			</g>
		</g>
	</g>
	<g>
		<g>
			<g>
				<polygon class="st0" points="273.5,489.5 194.9,489.5 194.9,369.4 272,369.4 272,371.2 196.7,371.2 196.7,487.8 273.5,487.8 
									"/>
			</g>
		</g>
	</g>
	<g>
		<g>
			<g>
				<polygon class="st0" points="410.6,491.1 370.7,441.2 372.1,440.1 408.8,486.2 408.8,370.5 410.6,370.5 				"/>
			</g>
		</g>
	</g>
	<g>
		<g>
			<g>
				<polygon class="st0" points="314.2,488.6 312.5,488.6 312.5,365.4 354,417.4 352.6,418.5 314.2,370.3 				"/>
			</g>
		</g>
	</g>
	<g>
		<g>
			<g>
				<polygon class="st0" points="527.2,489.5 448.7,489.5 448.7,369.4 525.7,369.4 525.7,371.2 450.4,371.2 450.4,487.8 
					527.2,487.8 				"/>
			</g>
		</g>
	</g>
	<g>
		<g>
			<g>
				<g>
					<path class="st0" d="M592,489.5c-5.4,0-10.5-0.8-15.3-2.2c-4.7-1.5-9-3.6-12.7-6.3c-3.7-2.7-6.9-6.1-9.4-9.9
						c-2.5-3.8-4.4-8.2-5.5-12.9l1.7-0.4c1,4.5,2.8,8.6,5.2,12.3c2.4,3.7,5.4,6.8,9,9.4c3.5,2.6,7.6,4.7,12.2,6.1
						c4.6,1.4,9.5,2.2,14.7,2.2c5.7,0,11.1-0.9,16.1-2.8c5-1.8,9.4-4.4,13.2-7.6c3.8-3.1,6.7-6.9,8.9-11.3c2.1-4.3,3.2-9.1,3.2-14.2
						c0-4.6-0.8-8.5-2.5-11.8c-1.7-3.3-4-6.2-6.9-8.7c-2.9-2.5-6.3-4.7-10.1-6.6c-3.8-1.9-7.9-3.7-12.3-5.4l-8.9-3.5
						c-2.1-0.9-4.2-1.8-6.5-2.7l-0.7-0.3c-2.6-1.1-4.9-2.4-7-3.9c-2.1-1.5-3.9-3.3-5.3-5.3c-1.5-2.1-2.2-4.5-2.2-7.2h1.7
						c0,2.4,0.6,4.4,1.9,6.2c1.3,1.9,3,3.5,4.9,4.9c1.9,1.4,4.2,2.6,6.6,3.7l0.7,0.3c2.2,0.9,4.4,1.8,6.5,2.7l8.9,3.5
						c4.4,1.7,8.6,3.5,12.5,5.5c3.9,2,7.4,4.3,10.4,6.9c3.1,2.6,5.5,5.7,7.3,9.2c1.8,3.5,2.7,7.8,2.7,12.6c0,5.3-1.1,10.4-3.4,14.9
						c-2.2,4.6-5.4,8.5-9.3,11.8c-3.9,3.3-8.6,5.9-13.7,7.9C603.5,488.5,597.9,489.5,592,489.5z M617.4,447.1
						c-0.3-0.8-0.6-1.5-1-2.2c-1.4-2.3-3.1-4.3-5.4-6.1c-2.3-1.7-4.9-3.3-7.8-4.5c-2.9-1.3-5.8-2.5-9.1-3.8l-8.2-3.1
						c-4-1.6-7.8-3.3-11.3-5.1c-3.6-1.8-6.8-3.9-9.6-6.3c-2.8-2.4-5-5.2-6.5-8.4c-1.6-3.2-2.4-7.1-2.4-11.5c0-4.7,1.1-9.1,3.1-12.9
						c2.1-3.8,5-7.1,8.5-9.8c3.6-2.7,7.7-4.7,12.3-6.2c4.6-1.4,9.5-2.2,14.5-2.2c7.6,0,14.6,1.6,20.8,4.9c6.2,3.3,11.2,8,14.8,13.9
						l-1.5,0.9c-3.5-5.7-8.2-10.2-14.1-13.3c-5.9-3.1-12.6-4.7-20-4.7c-4.9,0-9.6,0.7-14,2.1c-4.4,1.4-8.4,3.4-11.8,5.9
						c-3.4,2.5-6.1,5.6-8.1,9.2c-1.9,3.6-2.9,7.6-2.9,12.1c0,4.2,0.7,7.8,2.2,10.7c1.5,3,3.5,5.6,6.1,7.8c2.6,2.3,5.7,4.3,9.2,6
						c3.5,1.8,7.3,3.4,11.2,5l8.2,3.1c3.3,1.3,6.3,2.6,9.2,3.9c3,1.3,5.8,2.9,8.1,4.7c2.4,1.9,4.4,4.1,5.9,6.5
						c0.5,0.8,0.8,1.6,1.2,2.5L617.4,447.1z"/>
				</g>
			</g>
		</g>
	</g>
	<g>
		<g>
			<g>
				<rect x="671.9" y="370.5" class="st0" width="1.7" height="44.3"/>
			</g>
		</g>
	</g>
	<g>
		<g>
			<g>
				<rect x="671.9" y="443.5" class="st0" width="1.7" height="45.2"/>
			</g>
		</g>
	</g>
	<g>
		<g>
			<g>
				<g>
					<g>
						<path class="st0" d="M753.2,489.5c-5.4,0-10.5-0.8-15.3-2.2c-4.7-1.5-9-3.6-12.7-6.3c-3.7-2.7-6.9-6.1-9.4-9.9
							c-2.5-3.8-4.4-8.2-5.5-12.9l1.7-0.4c1,4.5,2.8,8.6,5.2,12.3c2.4,3.7,5.4,6.8,9,9.4c3.5,2.6,7.6,4.7,12.2,6.1
							c4.6,1.4,9.5,2.2,14.7,2.2c5.7,0,11.1-0.9,16.1-2.8c5-1.8,9.4-4.4,13.2-7.6c3.8-3.1,6.7-6.9,8.9-11.3
							c2.1-4.3,3.2-9.1,3.2-14.2c0-4.6-0.8-8.5-2.5-11.8c-1.7-3.3-4-6.2-6.8-8.7c-2.9-2.5-6.3-4.7-10.1-6.6
							c-3.8-1.9-7.9-3.7-12.3-5.4l-8.9-3.5c-2.1-0.9-4.2-1.8-6.5-2.7l-0.7-0.3c-2.6-1.1-4.9-2.4-7-3.9c-2.1-1.5-3.9-3.3-5.3-5.3
							c-1.5-2.1-2.2-4.5-2.2-7.2h1.7c0,2.4,0.6,4.4,1.9,6.2c1.3,1.9,3,3.5,4.9,4.9c1.9,1.4,4.2,2.6,6.6,3.7l0.7,0.3
							c2.2,0.9,4.4,1.8,6.5,2.7l8.9,3.5c4.4,1.7,8.6,3.5,12.5,5.5c3.9,2,7.4,4.3,10.4,6.9c3.1,2.6,5.5,5.7,7.3,9.2
							c1.8,3.5,2.7,7.8,2.7,12.6c0,5.3-1.1,10.4-3.4,14.9c-2.2,4.6-5.4,8.5-9.3,11.8c-3.9,3.3-8.6,5.9-13.7,7.9
							C764.7,488.5,759.1,489.5,753.2,489.5z M778.6,447.1c-0.3-0.8-0.6-1.5-1-2.2c-1.4-2.3-3.1-4.3-5.4-6.1
							c-2.3-1.7-4.9-3.3-7.8-4.5c-2.9-1.3-5.8-2.5-9.1-3.8l-8.2-3.1c-4-1.6-7.8-3.3-11.3-5.1c-3.6-1.8-6.8-3.9-9.6-6.3
							c-2.8-2.4-5-5.2-6.5-8.4c-1.6-3.2-2.4-7.1-2.4-11.5c0-4.7,1.1-9.1,3.1-12.9c2.1-3.8,5-7.1,8.5-9.8c3.6-2.7,7.7-4.7,12.3-6.2
							c4.6-1.4,9.5-2.2,14.5-2.2c7.6,0,14.6,1.6,20.8,4.9c6.2,3.3,11.2,8,14.8,13.9l-1.5,0.9c-3.5-5.7-8.2-10.2-14.1-13.3
							c-5.9-3.1-12.6-4.7-20-4.7c-4.9,0-9.6,0.7-14,2.1c-4.4,1.4-8.4,3.4-11.8,5.9c-3.4,2.5-6.1,5.6-8.1,9.2
							c-1.9,3.6-2.9,7.6-2.9,12.1c0,4.1,0.7,7.7,2.2,10.7c1.5,3,3.5,5.6,6.1,7.8c2.6,2.3,5.7,4.3,9.2,6c3.5,1.8,7.3,3.4,11.2,5
							l8.2,3.1c3.3,1.3,6.3,2.6,9.2,3.9c3,1.3,5.8,2.9,8.1,4.7c2.4,1.9,4.4,4.1,5.9,6.5c0.5,0.8,0.8,1.6,1.2,2.5L778.6,447.1z"/>
					</g>
				</g>
			</g>
		</g>
	</g>
	<g>
		<g>
			<g>
				<path class="st0" d="M53.9,455.6c-6.9,0-13.4-2.7-18.3-7.5c-5-4.9-7.8-11.5-7.9-18.5c-0.1-7,2.6-13.6,7.5-18.6
					c4.9-5,11.5-7.8,18.5-7.9l0,1.7c-6.5,0.1-12.7,2.7-17.2,7.4c-4.6,4.7-7.1,10.9-7,17.4c0.1,6.5,2.7,12.7,7.4,17.2
					c4.6,4.5,10.7,7,17.1,7c0.1,0,0.2,0,0.3,0l0,1.7C54.1,455.6,54,455.6,53.9,455.6z"/>
			</g>
		</g>
	</g>
	<g>
		<g>
			<g>
				<circle class="st0" cx="50.2" cy="429.5" r="10.6"/>
			</g>
		</g>
	</g>
	<g>
		<g>
			<g>
				<path class="st0" d="M228.7,440.9c-6.3,0-11.4-5.1-11.4-11.4c0-6.3,5.1-11.4,11.4-11.4v1.7c-5.4,0-9.7,4.4-9.7,9.7
					c0,5.4,4.4,9.7,9.7,9.7V440.9z"/>
			</g>
		</g>
	</g>
	<g>
		<g>
			<g>
				<rect x="195.9" y="428.6" class="st0" width="22.2" height="1.7"/>
			</g>
		</g>
	</g>
	<g>
		<g>
			<g>
				<circle class="st0" cx="361.4" cy="429.9" r="10.6"/>
			</g>
		</g>
	</g>
	<g>
		<g>
			<g>
				<path class="st0" d="M361.4,455.8c-14.5,0-26.2-11.8-26.2-26.2c0-14.5,11.8-26.2,26.2-26.2v1.7c-13.5,0-24.5,11-24.5,24.5
					s11,24.5,24.5,24.5V455.8z"/>
			</g>
		</g>
	</g>
	<g>
		<g>
			<g>
				<circle class="st0" cx="610.2" cy="368.6" r="7.5"/>
			</g>
		</g>
	</g>
	<g>
		<g>
			<g>
				<path class="st0" d="M479.3,456.1v-1.7c13.5,0,24.5-11,24.5-24.5s-11-24.5-24.5-24.5v-1.7c14.5,0,26.2,11.8,26.2,26.2
					S493.8,456.1,479.3,456.1z"/>
			</g>
		</g>
	</g>
	<g>
		<g>
			<g>
				<path class="st0" d="M672.7,441.2c-6.5,0-11.7-5.3-11.7-11.7c0-6.5,5.3-11.7,11.7-11.7c6.5,0,11.7,5.3,11.7,11.7
					C684.5,435.9,679.2,441.2,672.7,441.2z M672.7,420.1c-5.2,0-9.4,4.2-9.4,9.4c0,5.2,4.2,9.4,9.4,9.4c5.2,0,9.4-4.2,9.4-9.4
					C682.2,424.3,677.9,420.1,672.7,420.1z"/>
			</g>
		</g>
	</g>
	<g>
		<g>
			<g>
				<path class="st1" d="M749.1,414.4"/>
			</g>
		</g>
	</g>
	<g>
		<g>
			<g>
				<path class="st0" d="M479.3,440.9c-6.3,0-11.4-5.1-11.4-11.4c0-6.3,5.1-11.4,11.4-11.4v1.7c-5.4,0-9.7,4.4-9.7,9.7
					c0,5.4,4.4,9.7,9.7,9.7V440.9z"/>
			</g>
		</g>
	</g>
	<g>
		<g>
			<g>
				<rect x="449.6" y="428.6" class="st0" width="19.1" height="1.7"/>
			</g>
		</g>
	</g>
	<g>
		<g>
			<g>
				<path class="st0" d="M228.7,456.1v-1.7c13.5,0,24.5-11,24.5-24.5s-11-24.5-24.5-24.5v-1.7c14.5,0,26.2,11.8,26.2,26.2
					S243.2,456.1,228.7,456.1z"/>
			</g>
		</g>
	</g>
	<g>
		<g>
			<g>
				<circle class="st0" cx="754.4" cy="414.4" r="7.5"/>
			</g>
		</g>
	</g>
	<g>
		<g>
			<g>
				<circle class="st0" cx="672.7" cy="429.5" r="5.6"/>
			</g>
		</g>
	</g>
	<g>
		<g>
			<g>
				<circle class="st0" cx="479.3" cy="429.5" r="5.6"/>
			</g>
		</g>
	</g>
	<g>
		<g>
			<g>
				<circle class="st0" cx="228.7" cy="429.5" r="5.6"/>
			</g>
		</g>
	</g>
	<g>
		<g>
			<g>
				<path class="st1" d="M843.6,368.4"/>
			</g>
		</g>
	</g>
	<g>
		<g>
			<g>
				<path class="st0" d="M131.2,529.9c2.2,0,3.8,1.1,4.6,2.7l-1.2,0.8c-0.7-1.6-2.2-2.1-3.4-2.1c-2.7,0-4.2,2.5-4.2,4.8
					c0,2.6,1.8,4.9,4.2,4.9c1.3,0,2.8-0.6,3.5-2.2l1.3,0.7c-0.8,1.8-3,2.9-4.9,2.9c-3.4,0-5.8-3.2-5.8-6.3
					C125.3,533.1,127.5,529.9,131.2,529.9z"/>
			</g>
		</g>
		<g>
			<g>
				<path class="st0" d="M143.4,542.3l5-12.3h1.3l5,12.3h-1.7l-1.5-3.6h-5.1l-1.4,3.6H143.4z M149,531.8l-2.3,5.7h4.5L149,531.8z"/>
			</g>
		</g>
		<g>
			<g>
				<path class="st0" d="M163.3,542.3V530h5.3c2.2,0,3.7,2,3.7,3.9c0,1.7-1,3.2-2.6,3.6l3,4.7h-1.8l-2.8-4.4h-3.2v4.4H163.3z
					 M164.8,536.5h3.7c1.3,0,2.1-1.2,2.1-2.6c0-1.4-1-2.5-2.2-2.5h-3.6V536.5z"/>
			</g>
		</g>
		<g>
			<g>
				<path class="st0" d="M181.7,542.3V530h4.2c3.9,0,5.9,2.7,5.9,6.1c0,3.7-2.3,6.1-5.9,6.1H181.7z M185.9,531.4h-2.7v9.5h2.7
					c2.8,0,4.4-2.1,4.4-4.8C190.3,533.4,188.7,531.4,185.9,531.4z"/>
			</g>
		</g>
		<g>
			<g>
				<path class="st0" d="M220.9,540.6c-1.1,1.2-2.3,1.7-3.7,1.7c-3.2,0-5.7-3.1-5.7-6.3c0-3.3,2.4-6.2,5.7-6.2
					c2.4,0,3.9,1.1,4.7,2.7l-1.2,0.8c-0.7-1.4-2-2.1-3.5-2.1c-2.5,0-4.1,2.3-4.1,4.8c0,2.6,1.8,4.8,4.3,4.8c1.3,0,2.5-0.6,3.6-1.9
					v-1.7h-2.6v-1.2h4v6.1h-1.3V540.6z"/>
			</g>
		</g>
		<g>
			<g>
				<path class="st0" d="M230.3,542.3l5-12.3h1.3l5,12.3H240l-1.5-3.6h-5.1l-1.4,3.6H230.3z M236,531.8l-2.3,5.7h4.5L236,531.8z"/>
			</g>
		</g>
		<g>
			<g>
				<path class="st0" d="M260.8,542.3v-9.5l-4.1,7.3h-0.9l-4.1-7.3v9.5h-1.6V530h1.6l4.4,8l4.5-8h1.6v12.3H260.8z"/>
			</g>
		</g>
		<g>
			<g>
				<path class="st0" d="M272.2,542.3V530h1.6v12.2H272.2z"/>
			</g>
		</g>
		<g>
			<g>
				<path class="st0" d="M285.2,532.9v9.4h-1.6V530h1.2l7.6,9.6V530h1.6v12.2h-1.3L285.2,532.9z"/>
			</g>
		</g>
		<g>
			<g>
				<path class="st0" d="M312.5,540.6c-1.1,1.2-2.3,1.7-3.7,1.7c-3.2,0-5.7-3.1-5.7-6.3c0-3.3,2.4-6.2,5.7-6.2
					c2.4,0,3.9,1.1,4.7,2.7l-1.2,0.8c-0.7-1.4-2-2.1-3.5-2.1c-2.5,0-4.1,2.3-4.1,4.8c0,2.6,1.8,4.8,4.3,4.8c1.3,0,2.5-0.6,3.6-1.9
					v-1.7h-2.6v-1.2h4v6.1h-1.3V540.6z"/>
			</g>
		</g>
		<g>
			<g>
				<path class="st0" d="M322.8,542.3v-1.9h1.3v1.9H322.8z"/>
			</g>
		</g>
		<g>
			<g>
				<path class="st0" d="M344.8,542.3V530h1.6v12.2H344.8z"/>
			</g>
		</g>
		<g>
			<g>
				<path class="st0" d="M357.8,532.9v9.4h-1.6V530h1.2l7.6,9.6V530h1.6v12.2h-1.3L357.8,532.9z"/>
			</g>
		</g>
		<g>
			<g>
				<path class="st0" d="M385.9,542.3l5-12.3h1.3l5,12.3h-1.7l-1.5-3.6H389l-1.4,3.6H385.9z M391.6,531.8l-2.3,5.7h4.5L391.6,531.8z
					"/>
			</g>
		</g>
		<g>
			<g>
				<path class="st0" d="M414,536.2V530h1.6v6.2c0,3.3-1.5,6.1-5.2,6.1c-3.9,0-5.2-3-5.2-6.1V530h1.6v6.2c0,2.4,0.9,4.7,3.7,4.7
					C413.2,541,414,538.5,414,536.2z"/>
			</g>
		</g>
		<g>
			<g>
				<path class="st0" d="M433.9,540.6c-1.1,1.2-2.3,1.7-3.7,1.7c-3.2,0-5.7-3.1-5.7-6.3c0-3.3,2.4-6.2,5.7-6.2
					c2.4,0,3.9,1.1,4.7,2.7l-1.2,0.8c-0.7-1.4-2-2.1-3.5-2.1c-2.5,0-4.1,2.3-4.1,4.8c0,2.6,1.8,4.8,4.3,4.8c1.3,0,2.5-0.6,3.6-1.9
					v-1.7h-2.6v-1.2h4v6.1h-1.3V540.6z"/>
			</g>
		</g>
		<g>
			<g>
				<path class="st0" d="M455.2,542.3v-9.5l-4.1,7.3h-0.9l-4.1-7.3v9.5h-1.6V530h1.6l4.4,8l4.5-8h1.6v12.3H455.2z"/>
			</g>
		</g>
		<g>
			<g>
				<path class="st0" d="M474.9,540.9v1.4h-8.3V530h8.2v1.4h-6.6v4h5.8v1.3h-5.8v4.2H474.9z"/>
			</g>
		</g>
		<g>
			<g>
				<path class="st0" d="M485.6,532.9v9.4H484V530h1.2l7.6,9.6V530h1.6v12.2h-1.3L485.6,532.9z"/>
			</g>
		</g>
		<g>
			<g>
				<path class="st0" d="M513.1,531.4h-4.2v10.9h-1.6v-10.9h-4.2V530h10V531.4z"/>
			</g>
		</g>
		<g>
			<g>
				<path class="st0" d="M530.1,540.9v1.4h-8.3V530h8.2v1.4h-6.6v4h5.8v1.3h-5.8v4.2H530.1z"/>
			</g>
		</g>
		<g>
			<g>
				<path class="st0" d="M539.3,542.3V530h4.2c3.9,0,5.9,2.7,5.9,6.1c0,3.7-2.3,6.1-5.9,6.1H539.3z M543.5,531.4h-2.7v9.5h2.7
					c2.8,0,4.4-2.1,4.4-4.8C547.9,533.4,546.3,531.4,543.5,531.4z"/>
			</g>
		</g>
		<g>
			<g>
				<path class="st0" d="M569.9,542.3V530h5.3c2.2,0,3.7,2,3.7,3.9c0,1.7-1,3.2-2.6,3.6l3,4.7h-1.8l-2.8-4.4h-3.2v4.4H569.9z
					 M571.4,536.5h3.7c1.3,0,2.1-1.2,2.1-2.6c0-1.4-1-2.5-2.2-2.5h-3.6V536.5z"/>
			</g>
		</g>
		<g>
			<g>
				<path class="st0" d="M596.6,540.9v1.4h-8.3V530h8.2v1.4h-6.6v4h5.8v1.3h-5.8v4.2H596.6z"/>
			</g>
		</g>
		<g>
			<g>
				<path class="st0" d="M604.4,542.3l5-12.3h1.3l5,12.3h-1.7l-1.5-3.6h-5.1l-1.4,3.6H604.4z M610.1,531.8l-2.3,5.7h4.5L610.1,531.8
					z"/>
			</g>
		</g>
		<g>
			<g>
				<path class="st0" d="M624.3,542.3V530h1.6v10.9h6.8v1.4H624.3z"/>
			</g>
		</g>
		<g>
			<g>
				<path class="st0" d="M641.5,542.3V530h1.6v12.2H641.5z"/>
			</g>
		</g>
		<g>
			<g>
				<path class="st0" d="M661.7,531.4h-4.2v10.9h-1.6v-10.9h-4.2V530h10V531.4z"/>
			</g>
		</g>
		<g>
			<g>
				<path class="st0" d="M670.7,530l3.7,6.4l3.7-6.4h1.7l-4.7,7.8v4.5h-1.6v-4.5L669,530H670.7z"/>
			</g>
		</g>
		<g>
			<g>
				<path class="st0" d="M686.6,542.3v-1.9h1.3v1.9H686.6z"/>
			</g>
		</g>
	</g>
	<g>
		<g>
			<g>
				<circle class="st0" cx="195.9" cy="391.8" r="5.6"/>
			</g>
		</g>
	</g>
	<g>
		<g>
			<g>
				<circle class="st0" cx="313.3" cy="429.9" r="5.6"/>
			</g>
		</g>
	</g>
	<g>
		<g>
			<g>
				<circle class="st0" cx="479.2" cy="488.6" r="5.6"/>
			</g>
		</g>
	</g>
	<g>
		<g>
			<g>
				<circle class="st0" cx="672.7" cy="466.1" r="5.6"/>
			</g>
		</g>
	</g>
	<g>
		<g>
			<g>
				<circle class="st0" cx="754.4" cy="460.1" r="5.6"/>
			</g>
		</g>
	</g>
	<g>
		<g>
			<g>
				<circle class="st0" cx="100.9" cy="460.1" r="5.6"/>
			</g>
		</g>
	</g>
	<g>
		<g>
			<g>
				<circle class="st0" cx="610.2" cy="452.4" r="10.6"/>
			</g>
		</g>
	</g>
	<g>
		<g>
			<g>
				<path class="st0" d="M15.1,333.7c0,0,4.5-0.2,12.3-0.4c3.9-0.1,8.6-0.3,14.1-0.4c2.7-0.1,5.6-0.2,8.7-0.3c3-0.1,6.3,0,9.6,0
					c26.8,0,62.5,0,98.1,0s71.4,0,98.1,0c3.3,0,6.6-0.1,9.6,0c3,0.1,5.9,0.2,8.7,0.3c5.4,0.2,10.2,0.3,14.1,0.4
					c7.8,0.3,12.3,0.4,12.3,0.4s-4.5,0.2-12.3,0.4c-3.9,0.1-8.6,0.3-14.1,0.4c-2.7,0.1-5.6,0.2-8.7,0.3c-3,0.1-6.3,0-9.6,0
					c-26.8,0-62.5,0-98.1,0s-71.4,0-98.1,0c-3.3,0-6.6,0.1-9.6,0c-3-0.1-5.9-0.2-8.7-0.3c-5.4-0.2-10.2-0.3-14.1-0.4
					C19.6,333.8,15.1,333.7,15.1,333.7z"/>
			</g>
		</g>
	</g>
	<g>
		<g>
			<g>
				<path class="st0" d="M510.5,333.7c0,0,4.5-0.2,12.3-0.4c3.9-0.1,8.6-0.3,14.1-0.4c2.7-0.1,5.6-0.2,8.7-0.3c3-0.1,6.3,0,9.6,0
					c26.8,0,62.5,0,98.1,0c35.7,0,71.4,0,98.1,0c3.3,0,6.6-0.1,9.6,0c3,0.1,5.9,0.2,8.7,0.3c5.4,0.2,10.2,0.3,14.1,0.4
					c7.8,0.3,12.3,0.4,12.3,0.4s-4.5,0.2-12.3,0.4c-3.9,0.1-8.6,0.3-14.1,0.4c-2.7,0.1-5.6,0.2-8.7,0.3c-3,0.1-6.3,0-9.6,0
					c-26.8,0-62.5,0-98.1,0c-35.7,0-71.4,0-98.1,0c-3.3,0-6.6,0.1-9.6,0c-3-0.1-5.9-0.2-8.7-0.3c-5.4-0.2-10.2-0.3-14.1-0.4
					C514.9,333.8,510.5,333.7,510.5,333.7z"/>
			</g>
		</g>
	</g>
	<g>
		<g>
			<g>
				<path class="st0" d="M15.1,535c0,0,1.2-0.2,3.3-0.4c1-0.1,2.3-0.3,3.8-0.4c0.7-0.1,1.5-0.2,2.3-0.3c0.8-0.1,1.7,0,2.6,0
					c7.2,0,16.7,0,26.3,0s19.1,0,26.3,0c0.9,0,1.8-0.1,2.6,0c0.8,0.1,1.6,0.2,2.3,0.3c1.5,0.2,2.7,0.3,3.8,0.4
					c2.1,0.3,3.3,0.4,3.3,0.4s-1.2,0.2-3.3,0.4c-1,0.1-2.3,0.3-3.8,0.4c-0.7,0.1-1.5,0.2-2.3,0.3c-0.8,0.1-1.7,0-2.6,0
					c-7.2,0-16.7,0-26.3,0s-19.1,0-26.3,0c-0.9,0-1.8,0.1-2.6,0c-0.8-0.1-1.6-0.2-2.3-0.3c-1.5-0.2-2.7-0.3-3.8-0.4
					C16.3,535.2,15.1,535,15.1,535z"/>
			</g>
		</g>
	</g>
	<g>
		<g>
			<g>
				<path class="st0" d="M726.9,535c0,0,1.1-0.2,3-0.4c0.9-0.1,2.1-0.3,3.4-0.4c0.7-0.1,1.4-0.2,2.1-0.3c0.7-0.1,1.5,0,2.3,0
					c6.5,0,15.1,0,23.7,0c8.6,0,17.3,0,23.7,0c0.8,0,1.6-0.1,2.3,0c0.7,0.1,1.4,0.2,2.1,0.3c1.3,0.2,2.5,0.3,3.4,0.4
					c1.9,0.3,3,0.4,3,0.4s-1.1,0.2-3,0.4c-0.9,0.1-2.1,0.3-3.4,0.4c-0.7,0.1-1.4,0.2-2.1,0.3c-0.7,0.1-1.5,0-2.3,0
					c-6.5,0-15.1,0-23.7,0c-8.6,0-17.3,0-23.7,0c-0.8,0-1.6,0.1-2.3,0c-0.7-0.1-1.4-0.2-2.1-0.3c-1.3-0.2-2.5-0.3-3.4-0.4
					C728,535.2,726.9,535,726.9,535z"/>
			</g>
		</g>
	</g>
	<g>
		<g>
			<g>
				<g>
					<g>
						<path class="st0" d="M496.9,244.4l-1.7-1.8l54.3-54.1c-0.3-77-63-139.6-140.1-139.6c-77.2,0-140.1,62.8-140.1,140.1h-2.5
							c0-78.6,64-142.6,142.6-142.6c78.6,0,142.6,64,142.6,142.6v0.5L496.9,244.4z"/>
					</g>
				</g>
			</g>
		</g>
		<g>
			<g>
				<g>
					<g>
						
							<rect x="445.6" y="242.3" transform="matrix(0.7071 0.7071 -0.7071 0.7071 317.5015 -279.3728)" class="st0" width="100.9" height="2.5"/>
					</g>
				</g>
			</g>
		</g>
		<g>
			<g>
				<g>
					<g>
						<path class="st0" d="M409,341.8c-84.3,0-152.9-68.6-152.9-152.9S324.6,36,409,36s152.9,68.6,152.9,152.9
							S493.3,341.8,409,341.8z M409,38.5c-82.9,0-150.4,67.5-150.4,150.4S326,339.4,409,339.4s150.4-67.5,150.4-150.4
							S491.9,38.5,409,38.5z"/>
					</g>
				</g>
			</g>
		</g>
		<g>
			<g>
				<g>
					<g>
						<path class="st0" d="M564.3,188.9h-7.4c0-81.6-66.4-148-148-148s-148,66.4-148,148h-7.4c0-85.7,69.7-155.4,155.4-155.4
							S564.3,103.2,564.3,188.9z"/>
					</g>
				</g>
			</g>
		</g>
		<g>
			<g>
				<g>
					<g>
						<polygon class="st0" points="409,190.9 300,81.9 301.8,80.2 409,187.4 517.2,79.2 518.9,80.9 						"/>
					</g>
				</g>
			</g>
		</g>
		<g>
			<g>
				<g>
					<g>
						<path class="st0" d="M311.9,218.2c-16,0-29.1-13.1-29.1-29.1s13.1-29.1,29.1-29.1s29.1,13.1,29.1,29.1
							S327.9,218.2,311.9,218.2z M311.9,167.5c-11.9,0-21.7,9.7-21.7,21.7c0,11.9,9.7,21.7,21.7,21.7s21.7-9.7,21.7-21.7
							C333.6,177.2,323.9,167.5,311.9,167.5z"/>
					</g>
				</g>
			</g>
		</g>
		<g>
			<g>
				<g>
					<g>
						<circle class="st0" cx="311.2" cy="188.9" r="12"/>
					</g>
				</g>
			</g>
		</g>
		<g>
			<g>
				<g>
					<g>
						
							<rect x="394.6" y="222.5" transform="matrix(0.7071 0.7071 -0.7071 0.7071 288.0972 -248.1095)" class="st0" width="97.8" height="2.5"/>
					</g>
				</g>
			</g>
		</g>
		<g>
			<g>
				<g>
					<g>
						<path class="st0" d="M408.7,206.9c-10.4,0-18.8-8.4-18.8-18.8c0-10.4,8.4-18.8,18.8-18.8s18.8,8.4,18.8,18.8
							C427.5,198.4,419.1,206.9,408.7,206.9z M408.7,171.7c-9,0-16.3,7.3-16.3,16.3c0,9,7.3,16.3,16.3,16.3c9,0,16.3-7.3,16.3-16.3
							C425,179.1,417.7,171.7,408.7,171.7z"/>
					</g>
				</g>
			</g>
		</g>
		<g>
			<g>
				<g>
					<g>
						<circle class="st0" cx="409" cy="340.6" r="7.9"/>
					</g>
				</g>
			</g>
		</g>
		<g>
			<g>
				<g>
					<g>
						<rect x="407.4" y="317.1" class="st0" width="2.5" height="23.5"/>
					</g>
				</g>
			</g>
		</g>
		<g>
			<g>
				<g>
					<g>
						<path class="st0" d="M410.5,290.7H409c-56,0-101.5-45.5-101.5-101.5S353,87.6,409,87.6V95c-51.9,0-94.1,42.2-94.1,94.1
							c0,51.4,41.4,93.3,92.6,94.1l47.8-47.8l5.3,5.3L410.5,290.7z"/>
					</g>
				</g>
			</g>
		</g>
		<g>
			<g>
				<g>
					<g>
						<polygon class="st0" points="388.2,285.3 382.9,280 473.4,189.6 440.9,157.2 446.2,151.9 483.9,189.6 						"/>
					</g>
				</g>
			</g>
		</g>
		<g>
			<g>
				<g>
					<g>
						<rect x="407.4" y="37.3" class="st0" width="2.5" height="150.8"/>
					</g>
				</g>
			</g>
		</g>
	</g>
</g>
<g id="Layer_1">
</g>
</svg>
